<svg width="128" height="128" fill="none" xmlns="http://www.w3.org/2000/svg"><path fill="#fff" d="M0 0h128v128H0z"/><path d="M42.437 65.543h9.765v35.199c0 .695.643 1.258 1.437 1.258h16.556c.794 0 1.437-.563 1.437-1.258V65.709h11.226c.73 0 1.344-.48 1.427-1.115l1.705-12.958a1.16 1.16 0 0 0-.354-.981 1.534 1.534 0 0 0-1.073-.421h-12.93V42.11c0-2.45 1.506-3.69 4.476-3.69h8.454c.794 0 1.437-.564 1.437-1.259V25.267c0-.695-.643-1.258-1.437-1.258H72.912c-.082-.003-.265-.009-.534-.009-2.021 0-9.048.348-14.599 4.819-6.15 4.954-5.295 10.887-5.091 11.915v9.5H42.437c-.794 0-1.437.563-1.437 1.258v12.792c0 .695.643 1.259 1.437 1.259Z" fill="#000"/></svg>
