<svg width="128" height="128" fill="none" xmlns="http://www.w3.org/2000/svg"><path fill="#fff" d="M0 0h128v128H0z"/><path d="M47.197 96h-13.31V56.209h13.31V96Zm-6.655-47.529a7.783 7.783 0 0 1-4.251-1.41 7.74 7.74 0 0 1-2.762-3.516 7.712 7.712 0 0 1 1.823-8.355 7.789 7.789 0 0 1 8.432-1.58 7.757 7.757 0 0 1 3.45 2.85 7.719 7.719 0 0 1 1.294 4.274 7.857 7.857 0 0 1-2.39 5.51 7.912 7.912 0 0 1-5.596 2.227ZM96 96H82.69V75.043c0-6.278-2.662-8.533-6.122-8.533a7.74 7.74 0 0 0-5.309 2.623 7.686 7.686 0 0 0-1.879 5.6 2.91 2.91 0 0 0 0 .62V96H56.07V56.209h12.867v5.747a13.781 13.781 0 0 1 5.178-4.654 13.838 13.838 0 0 1 6.8-1.536c6.877 0 14.907 3.803 14.907 16.182L96 96Z" fill="#000"/></svg>
