<svg width="128" height="128" fill="none" xmlns="http://www.w3.org/2000/svg"><path fill="#fff" d="M0 0h128v128H0z"/><path d="M38.75 87h6.187V47.641c-2.32.663-4.411 1.866-6.187 3.447V87ZM26.375 60.373v26.583l.399.044h5.788V60.333h-5.788l-.399.04ZM14 73.662c0 4.84 2.494 9.038 6.187 11.378V62.295C16.494 64.633 14 68.83 14 73.662ZM51.125 87h6.188V49.376a15.347 15.347 0 0 0-6.188-2.231V87Zm49.101-26.667h-3.48c.176-1.088.287-2.191.287-3.332C97.033 45.954 88.454 37 77.871 37c-5.742 0-10.86 2.67-14.37 6.85V87h36.725C107.277 87 113 81.03 113 73.66c0-7.362-5.723-13.328-12.774-13.328Z" fill="#001018"/></svg>
