<svg width="128" height="128" fill="none" xmlns="http://www.w3.org/2000/svg"><path fill="#fff" d="M0 0h128v128H0z"/><path fill-rule="evenodd" clip-rule="evenodd" d="M98.811 32.695h-.1c-2.527 0-6.469 1.415-24.56 8.894l-3.133 1.314c-7.277 3.032-20.415 8.692-39.618 17.08-3.335 1.314-5.053 2.628-5.255 3.84-.303 2.325 2.93 3.134 7.074 4.448l1.213.404C37.97 69.787 42.315 71 44.64 71c2.223 0 4.649-.809 7.277-2.628l9.803-6.57c12.835-8.59 19.607-13.037 20.213-13.24l.202-.1c.405-.101.91-.101 1.213.202.405.404.405 1.01.303 1.213-.303 1.516-17.99 17.484-19.404 18.899l-.101.404c-3.84 3.942-7.985 6.367-1.516 10.814l1.516 1.011c4.85 3.234 8.085 5.559 13.037 8.793l1.314.91c3.942 2.627 7.075 5.66 11.117 5.255 1.82-.202 3.74-1.92 4.75-6.873l.102-.303c2.324-12.431 6.872-39.517 7.984-50.634.101-1.01 0-2.224-.101-2.729v-.202c-.101-.505-.303-1.213-.91-1.617-.808-.708-2.021-.91-2.627-.91Z" fill="#000"/></svg>
