<svg xmlns="http://www.w3.org/2000/svg" fill="none" viewBox="0 0 324 324"><circle cx="162" cy="162" r="151" fill="#fff"/><path fill="#3390EC" fill-rule="evenodd" d="M162 0c89.463 0 162 72.537 162 162s-72.537 162-162 162S0 251.463 0 162 72.537 0 162 0Zm69.394 94.057h-.242c-6.045 0-15.474 3.385-58.755 21.277l-7.496 3.144c-17.408 7.253-48.841 20.794-94.782 40.862-7.979 3.144-12.09 6.287-12.573 9.188-.725 5.562 7.012 7.496 16.926 10.639l2.901.967c8.463 2.66 18.86 5.562 24.421 5.562 5.319 0 11.122-1.935 17.409-6.287l23.454-15.716c30.707-20.553 46.907-31.192 48.358-31.675l.483-.242c.968-.242 2.177-.242 2.902.484.967.967.967 2.418.725 2.901-.725 3.627-43.038 41.83-46.424 45.215l-.241.967c-9.188 9.43-19.102 15.233-3.627 25.872l3.627 2.418c11.606 7.737 19.343 13.298 31.191 21.036l3.143 2.176c9.43 6.286 16.925 13.54 26.597 12.573 4.352-.484 8.946-4.594 11.364-16.442l.242-.725c5.561-29.741 16.442-94.541 19.102-121.138.241-2.417-.001-5.319-.242-6.528v-.484c-.242-1.209-.726-2.901-2.176-3.868-1.935-1.693-4.836-2.176-6.287-2.176Z" clip-rule="evenodd"/></svg>
